<svg width="50" height="50" viewBox="0 0 50 50" fill="none" xmlns="http://www.w3.org/2000/svg">
<g clip-path="url(#clip0_1_790)">
<path d="M45 0H5C2.23858 0 0 2.19468 0 4.90196V45.098C0 47.8053 2.23858 50 5 50H45C47.7614 50 50 47.8053 50 45.098V4.90196C50 2.19468 47.7614 0 45 0Z" fill="white"/>
</g>
<path d="M24.5 32.0844C28.1364 32.0844 31.0844 29.1365 31.0844 25.5C31.0844 21.8636 28.1364 18.9156 24.5 18.9156C20.8635 18.9156 17.9156 21.8636 17.9156 25.5C17.9156 29.1365 20.8635 32.0844 24.5 32.0844Z" fill="#4E8EF7"/>
<path d="M37.9367 14.3274C37.9374 13.8931 37.813 13.4679 37.5784 13.1025C37.3438 12.737 37.009 12.4469 36.614 12.2666C36.2189 12.0864 35.7803 12.0237 35.3506 12.0861C34.9208 12.1485 34.5181 12.3333 34.1906 12.6184C30.9282 10.1635 26.8562 9.03693 22.7959 9.46583C18.7356 9.89473 14.9889 11.8472 12.3114 14.9295C9.63381 18.0119 8.22455 21.9948 8.36775 26.0752C8.51096 30.1556 10.196 34.0299 13.083 36.917C15.9701 39.8041 19.8444 41.4891 23.9248 41.6323C28.0052 41.7755 31.9881 40.3662 35.0705 37.6887C38.1528 35.0111 40.1053 31.2644 40.5342 27.2041C40.9631 23.1438 39.8365 19.0719 37.3816 15.8094C37.7398 15.3988 37.937 14.8722 37.9367 14.3274V14.3274ZM24.5 41.086C22.0306 41.088 19.5961 40.5032 17.397 39.3799C15.1979 38.2565 13.2972 36.6267 11.8516 34.6247C10.4059 32.6228 9.45655 30.3059 9.08182 27.8652C8.7071 25.4244 8.91769 22.9295 9.69625 20.586C10.4748 18.2426 11.7991 16.1177 13.5599 14.3864C15.3207 12.6551 17.4677 11.3669 19.8239 10.6281C22.1802 9.88923 24.6783 9.72084 27.1124 10.1368C29.5465 10.5527 31.847 11.541 33.8242 13.0203C33.5153 13.4559 33.3704 13.9867 33.4154 14.5189C33.4603 15.051 33.6921 15.55 34.0697 15.9276C34.4473 16.3052 34.9463 16.537 35.4784 16.5819C36.0105 16.6269 36.5414 16.482 36.9769 16.1731C38.707 18.4893 39.7587 21.2411 40.0146 24.1207C40.2704 27.0004 39.7203 29.8945 38.4257 32.4794C37.1311 35.0644 35.143 37.2383 32.6838 38.7582C30.2245 40.2781 27.391 41.0841 24.5 41.086Z" fill="#4E8EF7"/>
<defs>
<clipPath id="clip0_1_790">
<rect width="50" height="50" fill="white"/>
</clipPath>
</defs>
</svg>
