<svg width="50" height="50" viewBox="0 0 50 50" fill="none" xmlns="http://www.w3.org/2000/svg">
<path d="M45 0H5C2.23858 0 0 2.23858 0 5V45C0 47.7614 2.23858 50 5 50H45C47.7614 50 50 47.7614 50 45V5C50 2.23858 47.7614 0 45 0Z" fill="#FF2D20"/>
<path fill-rule="evenodd" clip-rule="evenodd" d="M40.982 16.2392C40.9938 16.2819 40.9999 16.3259 41 16.3701V23.2388C41 23.327 40.976 23.4135 40.9306 23.4898C40.8851 23.5661 40.8197 23.6294 40.7409 23.6732L34.8061 26.9924V33.5713C34.8061 33.7503 34.7081 33.9156 34.5483 34.0057L22.1599 40.9333C22.1315 40.949 22.1006 40.959 22.0696 40.9696C22.058 40.9734 22.0471 40.9803 22.0348 40.9834C21.9482 41.0055 21.8572 41.0055 21.7706 40.9834C21.7564 40.9796 21.7435 40.9721 21.73 40.9671C21.7017 40.9571 21.672 40.9483 21.6449 40.9333L9.25907 34.0057C9.18039 33.9618 9.11501 33.8986 9.06953 33.8223C9.02404 33.746 9.00006 33.6594 9 33.5713V12.9651C9 12.9201 9.00644 12.8762 9.01804 12.8337C9.02191 12.8193 9.03093 12.8061 9.03609 12.7917C9.04576 12.7654 9.05478 12.7385 9.06896 12.7141C9.07862 12.6978 9.0928 12.6847 9.1044 12.6697C9.11923 12.6496 9.13276 12.629 9.15016 12.6114C9.16498 12.597 9.18432 12.5864 9.20107 12.5739C9.21976 12.5589 9.23652 12.5426 9.25778 12.5307H9.25843L15.4517 9.0669C15.5301 9.02307 15.619 9 15.7095 9C15.7999 9 15.8888 9.02307 15.9673 9.0669L22.1605 12.5307H22.1618C22.1824 12.5432 22.1998 12.5589 22.2185 12.5733C22.2353 12.5858 22.254 12.597 22.2688 12.6108C22.2868 12.629 22.2997 12.6496 22.3152 12.6697C22.3261 12.6847 22.341 12.6978 22.35 12.7141C22.3648 12.7391 22.3732 12.7654 22.3835 12.7917C22.3886 12.8061 22.3977 12.8193 22.4015 12.8343C22.4134 12.877 22.4195 12.921 22.4196 12.9651V25.8355L27.5804 22.9489V16.3695C27.5804 16.3256 27.5869 16.2812 27.5985 16.2392C27.603 16.2242 27.6114 16.2111 27.6165 16.1967C27.6268 16.1704 27.6358 16.1435 27.65 16.119C27.6597 16.1028 27.6739 16.0896 27.6848 16.0746C27.7003 16.0546 27.7132 16.0339 27.7312 16.0164C27.746 16.002 27.7647 15.9913 27.7815 15.9788C27.8008 15.9638 27.8176 15.9475 27.8382 15.9356H27.8388L34.0327 12.4718C34.1111 12.4279 34.2 12.4048 34.2905 12.4048C34.381 12.4048 34.4699 12.4279 34.5483 12.4718L40.7416 15.9356C40.7635 15.9481 40.7802 15.9638 40.7996 15.9782C40.8157 15.9907 40.8344 16.002 40.8492 16.0157C40.8672 16.0339 40.8801 16.0546 40.8956 16.0746C40.9072 16.0896 40.9214 16.1028 40.9304 16.119C40.9452 16.1435 40.9536 16.1704 40.9639 16.1967C40.9697 16.2111 40.9781 16.2242 40.982 16.2392ZM39.9676 22.9489V17.2371L37.8003 18.4491L34.8061 20.1237V25.8355L39.9682 22.9489H39.9676ZM33.7743 33.2814V27.5659L30.8291 29.1998L22.4189 33.8624V39.6318L33.7743 33.2814ZM10.0324 13.8322V33.2814L21.3865 39.6312V33.863L15.4549 30.6021L15.453 30.6008L15.4504 30.5996C15.4304 30.5883 15.4137 30.572 15.395 30.5582C15.3789 30.5457 15.3602 30.5357 15.346 30.5219L15.3447 30.5201C15.3279 30.5044 15.3163 30.485 15.3022 30.4675C15.2893 30.4506 15.2738 30.4362 15.2635 30.4186L15.2629 30.4168C15.2513 30.398 15.2442 30.3754 15.2358 30.3542C15.2274 30.3354 15.2165 30.3178 15.2113 30.2978V30.2972C15.2049 30.2734 15.2036 30.2484 15.201 30.2239C15.1984 30.2052 15.1933 30.1864 15.1933 30.1676V30.1664V16.7188L12.1997 15.0435L10.0324 13.8328V13.8322ZM15.7101 10.0798L10.5499 12.9651L15.7088 15.8505L20.8684 12.9645L15.7088 10.0798H15.7101ZM18.3936 28.0867L21.3872 26.4127V13.8322L19.2198 15.0442L16.2257 16.7188V29.2993L18.3936 28.0867ZM34.2905 13.4847L29.131 16.3701L34.2905 19.2554L39.4494 16.3695L34.2905 13.4847ZM33.7743 20.1237L30.7802 18.4491L28.6128 17.2371V22.9489L31.6064 24.6229L33.7743 25.8355V20.1237ZM21.9021 32.9953L29.47 28.7985L33.253 26.7013L28.0973 23.8179L22.1612 27.1377L16.7509 30.1632L21.9021 32.9953Z" fill="white"/>
</svg>
